# xmcd CD database file
#
# Track frame offsets:
#	150
#	30935
#	58649
#	82649
#	108488
#	133694
#	155483
#	167349
#	202666
#
# Disc length: 2919 seconds
#
# Revision: 0
# Processed by: cddbd v1.5.2PL0 Copyright (c) Steve Scherf et al.
# Submitted via: CDex 1.79
#
DISCID=5c0b6509
DTITLE=Vessels - Helioscope
DYEAR=2009
DGENRE=Country
TTITLE0=Monoform
TTITLE1=The Trap
TTITLE2=Recur
TTITLE3=Later Than You Think
TTITLE4=Meatman, Piano Tunrer, Prostitute
TTITLE5=Art/Choke
TTITLE6=Heal
TTITLE7=All Our Ends
TTITLE8=Spun Infinite
EXTD=YEAR: 2009
EXTT0=
EXTT1=
EXTT2=
EXTT3=
EXTT4=
EXTT5=
EXTT6=
EXTT7=
EXTT8=
PLAYORDER=
